# xmcd
# 
# Track frame offsets:
#     150
#     13213
#     24450
#     33256
#     44459
#     56736
#     65411
#     80466
#     99269
# 
# Disc length: 1648
# 
# Revision: 2
# Processed by: cddbd v1.5.2PL0 Copyright (c) Steve Scherf et al.
# Submitted via: fre:ac v1.0.17
# 
DISCID=6c066e09
DTITLE=Malherbe Didier - Eric Löhrer - Nuit d'ombrelle - CD 2
DYEAR=2011
DGENRE=Jazz
TTITLE0=Nout
TTITLE1=Semis d'oubli
TTITLE2=Songe de framboise
TTITLE3=Ombres déguisées
TTITLE4=Souvenir d'hippocampe
TTITLE5=Moires
TTITLE6=Ivres Dunes
TTITLE7=Vaguablues
TTITLE8=Bout de la nuit
EXTD=YEAR: 2011
EXTT0=
EXTT1=
EXTT2=
EXTT3=
EXTT4=
EXTT5=
EXTT6=
EXTT7=
EXTT8=
PLAYORDER=
